<?xml version="1.0" standalone="no"?>
<!DOCTYPE svg PUBLIC "-//W3C//DTD SVG 20010904//EN"
 "http://www.w3.org/TR/2001/REC-SVG-20010904/DTD/svg10.dtd">
<svg version="1.0" xmlns="http://www.w3.org/2000/svg"
 width="225.000000pt" height="225.000000pt" viewBox="0 0 225.000000 225.000000"
 preserveAspectRatio="xMidYMid meet">
<metadata>
Created by potrace 1.14, written by Peter Selinger 2001-2017
</metadata>
<g transform="translate(0.000000,225.000000) scale(0.100000,-0.100000)"
fill="#000000" stroke="none">
<path d="M925 2203 c-76 -14 -417 -177 -409 -196 2 -7 18 -21 34 -31 28 -16
32 -16 67 1 21 9 49 28 63 40 14 13 35 26 48 29 12 4 22 10 22 14 0 4 21 11
46 15 25 3 56 8 67 11 34 7 128 7 134 0 4 -3 -9 -6 -28 -6 -42 -1 -152 -24
-199 -42 -22 -8 -34 -19 -32 -28 3 -17 -103 -150 -120 -150 -6 0 -6 6 2 15 10
12 10 21 0 45 -14 33 -27 35 -44 5 -6 -11 -28 -37 -49 -60 -47 -50 -57 -83
-32 -102 11 -7 25 -13 33 -13 8 0 27 -11 44 -25 16 -14 36 -25 43 -25 8 0 17
-5 21 -12 5 -7 3 -8 -6 -3 -10 6 -11 4 -5 -11 33 -80 59 -156 66 -194 12 -63
34 -122 43 -113 4 4 4 0 1 -9 -7 -18 37 -72 49 -60 4 4 7 3 5 -3 -4 -16 17
-58 40 -82 29 -31 33 -29 13 6 -9 16 -20 27 -24 25 -12 -8 -9 10 5 29 6 9 28
17 47 19 l35 3 -37 17 c-21 9 -38 22 -38 27 0 9 80 16 148 14 6 -1 12 3 12 8
0 15 -20 20 -39 9 -14 -7 -28 -7 -47 0 -16 7 -31 7 -38 1 -7 -6 -18 -4 -30 4
-10 8 -24 11 -32 8 -11 -4 -14 3 -12 30 2 23 7 32 13 26 14 -14 42 -11 49 6 3
8 17 15 31 15 14 0 25 5 25 10 0 14 -46 12 -70 -2 -44 -28 -68 23 -47 100 4
19 6 36 3 39 -8 8 -46 -78 -46 -104 0 -28 -11 -29 -35 -3 -23 25 -27 45 -14
77 7 20 12 22 28 13 25 -13 31 -13 31 0 0 6 -12 16 -27 23 -29 12 -43 25 -43
41 0 5 7 3 15 -4 10 -9 15 -9 15 -1 0 6 9 2 20 -9 18 -18 50 -18 50 1 0 4 7 6
15 3 12 -5 15 2 15 28 0 40 -30 77 -63 80 -12 1 -29 2 -37 4 -8 1 -21 2 -27 3
-8 1 -11 10 -9 24 3 12 5 25 5 29 1 4 10 8 21 10 12 2 20 7 20 11 -2 14 42 47
69 53 14 3 45 10 69 16 59 15 190 4 244 -19 51 -23 98 -64 98 -86 0 -8 4 -17
9 -19 5 -1 12 -23 15 -48 6 -40 5 -43 -7 -27 -8 9 -12 29 -10 45 4 21 2 24 -6
12 -20 -28 -8 -165 13 -157 7 3 10 -8 8 -32 -4 -48 19 -81 46 -64 17 10 20 9
20 -12 0 -13 -9 -33 -19 -44 -13 -14 -15 -21 -6 -24 7 -3 14 -22 15 -42 2 -21
7 -46 12 -56 19 -34 10 -61 -40 -113 -55 -58 -209 -146 -255 -146 -35 0 -66
26 -58 48 5 11 3 13 -8 7 -8 -4 -11 -4 -6 0 4 5 16 10 26 12 21 3 136 77 146
93 4 6 -10 4 -32 -5 -57 -25 -125 -45 -152 -45 -21 0 -23 -4 -18 -29 6 -26 2
-30 -49 -56 -30 -15 -72 -40 -92 -54 -20 -15 -76 -49 -125 -76 -76 -42 -147
-101 -147 -121 0 -3 -14 -27 -31 -53 -82 -120 -150 -278 -173 -396 -1 -5 -5
-16 -9 -22 -8 -13 -2 -17 18 -14 6 1 1 -6 -9 -14 -13 -10 -15 -15 -6 -15 9 0
8 -4 -5 -13 -14 -11 -15 -16 -5 -22 9 -5 11 -4 6 3 -4 7 -2 12 3 12 6 0 11 -5
11 -10 0 -6 11 -8 23 -6 16 3 24 -1 24 -10 0 -11 -4 -11 -16 -2 -9 7 -5 0 8
-15 14 -15 27 -25 29 -22 3 3 12 -4 19 -15 8 -11 18 -18 23 -15 4 2 19 -4 33
-15 23 -18 25 -18 22 -3 -1 10 -7 17 -12 16 -5 -1 -10 5 -10 13 0 12 3 12 17
-1 31 -28 34 -15 4 18 l-29 32 31 -28 c28 -25 44 -65 21 -50 -6 3 -7 1 -4 -5
8 -11 25 -11 45 1 7 5 12 3 12 -7 0 -10 6 -13 15 -10 8 4 17 -1 21 -10 4 -11
13 -14 24 -11 10 3 21 2 23 -3 3 -4 18 -8 34 -7 31 0 54 -15 45 -30 -3 -5 1
-4 10 3 9 7 22 11 29 10 8 -2 13 3 11 10 -1 8 2 11 8 7 6 -3 8 -10 5 -14 -2
-5 4 -16 14 -25 16 -15 20 -15 31 -1 12 14 43 16 56 2 4 -3 -6 -4 -22 -1 -16
3 -26 2 -22 -1 4 -4 29 -9 55 -11 28 -2 42 0 35 5 -11 7 -11 9 2 14 9 4 15 3
15 -1 -6 -38 36 -44 81 -10 25 18 32 20 43 8 10 -10 9 -11 -2 -5 -9 5 -12 4
-7 -3 4 -7 16 -12 27 -12 11 0 17 4 14 10 -4 7 3 7 20 0 35 -13 54 -13 35 1
-12 8 -9 10 13 6 17 -3 30 0 33 8 3 6 15 11 27 10 12 -1 27 4 32 12 6 7 30 14
55 14 25 1 49 4 55 7 14 8 44 13 88 15 20 1 37 5 37 9 0 4 17 4 38 1 33 -6 36
-5 24 10 -12 14 -11 15 12 4 14 -7 26 -16 26 -20 0 -5 7 -1 16 7 8 9 29 16 45
16 16 0 29 5 29 10 0 6 9 10 19 10 11 0 23 5 26 10 3 5 15 10 26 10 10 0 19 7
19 15 0 9 9 15 25 15 14 0 25 5 25 11 0 5 5 7 10 4 6 -3 10 1 10 9 0 9 7 16
15 16 8 0 15 4 15 10 0 5 6 7 14 4 8 -3 24 4 36 16 11 11 24 18 29 16 9 -6 51
39 51 54 0 6 3 9 8 9 27 -5 32 4 32 55 0 29 -5 78 -11 107 -6 30 -11 66 -10
81 1 15 -3 29 -9 33 -6 3 -7 0 -4 -9 3 -9 1 -16 -5 -16 -6 0 -11 9 -11 20 0
11 -4 20 -9 20 -5 0 -19 17 -32 38 -12 20 -39 53 -59 73 -20 20 -43 44 -51 55
-21 29 -178 165 -227 199 -65 43 -119 97 -104 102 6 3 12 9 12 14 0 6 -4 7
-10 4 -6 -4 -10 9 -10 32 0 30 -3 35 -11 23 -8 -12 -9 -9 -5 12 3 15 -1 60
-10 100 -9 40 -17 89 -18 108 -1 19 -10 57 -20 84 -9 27 -20 69 -23 93 -8 62
-20 62 -13 0 5 -49 5 -124 -1 -228 -2 -47 5 -69 21 -69 5 0 7 21 4 48 -10 90
15 19 31 -87 18 -119 18 -124 5 -116 -21 13 -111 179 -115 214 -3 20 -7 131
-9 246 -6 265 -22 355 -64 355 -11 0 -13 -3 -5 -8 23 -15 35 -66 28 -128 -4
-40 -3 -64 4 -69 6 -3 11 -13 11 -22 0 -11 -18 2 -51 34 -28 28 -74 63 -103
77 -48 24 -65 27 -170 28 -63 1 -119 -2 -123 -5 -3 -4 -13 -7 -22 -7 -9 1 -4
8 13 17 28 15 67 21 145 22 38 1 39 7 1 13 -14 1 -28 8 -32 13 -5 6 -8 6 -8
-2 0 -7 -9 -10 -21 -8 -32 6 -33 11 -10 34 12 12 21 16 21 9 0 -9 3 -10 8 -2
4 6 15 10 25 8 12 -2 17 2 13 11 -3 8 0 17 6 21 7 4 8 3 4 -4 -4 -7 -2 -12 3
-12 6 0 11 5 11 10 0 6 5 10 11 10 5 0 7 -6 3 -12 -5 -9 -3 -9 9 1 20 16 141
10 177 -9 20 -11 25 -10 37 6 11 15 11 20 1 23 -7 2 -18 9 -23 16 -6 7 -35 14
-65 16 -67 3 -80 7 -80 25 0 20 34 34 84 34 36 0 44 3 40 15 -3 8 -22 19 -43
24 -38 10 -192 19 -226 14z m245 -33 c0 -5 -5 -10 -11 -10 -5 0 -7 5 -4 10 3
6 8 10 11 10 2 0 4 -4 4 -10z m-73 -6 c-3 -3 -12 -4 -19 -1 -8 3 -5 6 6 6 11
1 17 -2 13 -5z m-90 -20 c-3 -3 -12 -4 -19 -1 -8 3 -5 6 6 6 11 1 17 -2 13 -5z
m-294 -436 c-13 -12 -25 -19 -29 -15 -10 10 16 37 34 37 13 0 12 -4 -5 -22z
m83 -22 c25 -19 12 -31 -16 -16 -12 7 -31 10 -41 7 -21 -6 -26 8 -6 16 22 10
43 7 63 -7z m1 -345 c-1 -15 -4 -17 -19 -7 -24 14 -23 26 1 26 13 0 19 -6 18
-19z m-440 -1073 c-3 -8 -6 -5 -6 6 -1 11 2 17 5 13 3 -3 4 -12 1 -19z m28 -1
c0 -7 7 -11 16 -11 9 1 16 -4 16 -11 0 -8 -7 -11 -15 -7 -11 4 -13 1 -7 -9 5
-8 5 -11 -1 -6 -5 5 -10 13 -10 18 -1 5 -2 10 -4 12 -5 7 -7 38 -2 32 4 -4 7
-12 7 -18z m222 -74 c-4 -3 1 -16 10 -27 18 -21 18 -21 -4 -2 -20 16 -23 36
-6 36 4 0 3 -3 0 -7z m34 -20 c13 -16 12 -17 -3 -4 -10 7 -18 15 -18 17 0 8 8
3 21 -13z m146 -58 c0 -8 -4 -12 -9 -9 -5 3 -6 10 -3 15 9 13 12 11 12 -6z"/>
<path d="M1210 2159 c0 -5 5 -7 10 -4 6 3 10 8 10 11 0 2 -4 4 -10 4 -5 0 -10
-5 -10 -11z"/>
<path d="M1245 2150 c3 -5 11 -10 16 -10 6 0 7 5 4 10 -3 6 -11 10 -16 10 -6
0 -7 -4 -4 -10z"/>
<path d="M1288 2029 c17 -12 32 -25 32 -29 0 -5 13 -11 30 -15 16 -4 38 -17
49 -31 10 -13 25 -24 32 -24 9 0 10 3 3 8 -6 4 -13 15 -17 25 -4 10 -11 15
-17 12 -5 -3 -10 -1 -10 4 0 6 -7 11 -15 11 -7 0 -18 6 -22 14 -4 8 -15 16
-23 18 -8 2 -21 9 -28 16 -7 6 -21 12 -30 12 -11 0 -5 -8 16 -21z"/>
<path d="M1421 1814 c0 -11 3 -14 6 -6 3 7 2 16 -1 19 -3 4 -6 -2 -5 -13z"/>
<path d="M948 1748 c-17 -6 -28 -17 -28 -28 0 -10 -4 -22 -10 -25 -17 -11 -11
-22 22 -38 21 -10 38 -12 49 -7 13 7 18 5 22 -10 6 -23 45 -27 53 -6 3 8 13
12 24 9 10 -3 21 0 24 6 4 5 -2 10 -11 10 -41 0 -113 14 -113 22 0 17 50 21
80 6 43 -22 37 -3 -7 25 l-38 23 30 5 c25 5 27 7 12 13 -25 10 -76 8 -109 -5z"/>
<path d="M978 1603 c7 -3 16 -2 19 1 4 3 -2 6 -13 5 -11 0 -14 -3 -6 -6z"/>
<path d="M1005 90 c3 -5 8 -10 11 -10 2 0 4 5 4 10 0 6 -5 10 -11 10 -5 0 -7
-4 -4 -10z"/>
</g>
</svg>
